<?xml version="1.0" encoding="UTF-8" standalone="no"?>
<svg
   xmlns:dc="http://purl.org/dc/elements/1.1/"
   xmlns:cc="http://creativecommons.org/ns#"
   xmlns:rdf="http://www.w3.org/1999/02/22-rdf-syntax-ns#"
   xmlns:svg="http://www.w3.org/2000/svg"
   xmlns="http://www.w3.org/2000/svg"
   id="svg8"
   version="1.1"
   viewBox="0 0 100 100"
   height="100"
   width="100">
  <defs
     id="defs2" />
  <metadata
     id="metadata5">
    <rdf:RDF>
      <cc:Work
         rdf:about="">
        <dc:format>image/svg+xml</dc:format>
        <dc:type
           rdf:resource="http://purl.org/dc/dcmitype/StillImage" />
        <dc:title></dc:title>
      </cc:Work>
    </rdf:RDF>
  </metadata>
  <g
     style="display:inline"
     id="layer2">
    <path
       id="path862"
       d="M 0,0 H 30 C 40,0 40,10 50,10 60,10 60,0 70,0 h 30 v 30 c 0,10 -10,10 -10,20 0,10 10,10 10,20 v 30 H 70 C 60,100 60,90 50,90 40,90 40,100 30,100 H 0 V 70 C 0,60 10,60 10,50 10,40 0,40 0,30 Z"
       style="fill:#c00000;fill-opacity:1;stroke:none;stroke-width:0;stroke-linecap:butt;stroke-linejoin:miter;stroke-miterlimit:4;stroke-dasharray:none;stroke-opacity:1" />
  </g>
  <g
     style="display:inline"
     id="layer4">
    <path
       d="M 30,0 C 20,0 0,20 0,30 v 40 c 0,10 20,30 30,30 h 40 c 10,0 30,-20 30,-30 V 30 C 100,20 80,0 70,0 Z M 40,40 H 60 V 60 H 40 Z"
       style="fill:#3030d0;stroke:none;stroke-width:1px;stroke-linecap:butt;stroke-linejoin:miter;stroke-opacity:1"
       id="path924" />
  </g>
</svg>
