<?xml version="1.0" encoding="UTF-8" standalone="no"?>
<svg
   xmlns:dc="http://purl.org/dc/elements/1.1/"
   xmlns:cc="http://creativecommons.org/ns#"
   xmlns:rdf="http://www.w3.org/1999/02/22-rdf-syntax-ns#"
   xmlns:svg="http://www.w3.org/2000/svg"
   xmlns="http://www.w3.org/2000/svg"
   id="svg8"
   version="1.1"
   viewBox="0 0 30 30"
   height="30"
   width="30">
  <defs
     id="defs2" />
  <metadata
     id="metadata5">
    <rdf:RDF>
      <cc:Work
         rdf:about="">
        <dc:format>image/svg+xml</dc:format>
        <dc:type
           rdf:resource="http://purl.org/dc/dcmitype/StillImage" />
        <dc:title></dc:title>
      </cc:Work>
    </rdf:RDF>
  </metadata>
  <g
     id="layer6">
    <path
       d="M 15 2 L 12.308594 4.9550781 L 8.5 3.7421875 L 7.6464844 7.6464844 L 3.7421875 8.5 L 4.9550781 12.308594 L 2 15 L 4.9550781 17.691406 L 3.7421875 21.5 L 7.6464844 22.353516 L 8.5 26.257812 L 12.308594 25.044922 L 15 28 L 17.691406 25.044922 L 21.5 26.257812 L 22.353516 22.353516 L 26.257812 21.5 L 25.044922 17.691406 L 28 15 L 25.044922 12.308594 L 26.257812 8.5 L 22.353516 7.6464844 L 21.5 3.7421875 L 17.691406 4.9550781 L 15 2 z M 15 7 L 21 9 L 23 15 L 21 21 L 15 23 L 9 21 L 7 15 L 9 9 L 15 7 z "
       style="fill:#008001;fill-opacity:1;fill-rule:evenodd;stroke:#008001;stroke-width:3.9;stroke-linecap:round;stroke-linejoin:round;stroke-miterlimit:4;stroke-dasharray:none;stroke-opacity:1"
       id="path1055" />
  </g>
</svg>
